<svg xmlns="http://www.w3.org/2000/svg" viewBox="5.9 -49.6 708.4 50.4">
	<defs>
		<linearGradient id="gradient" x1="0" x2="1" y1=".5" y2=".5">
			<stop offset="0" stop-color="#f08"/>
			<stop offset="1" stop-color="#37f"/>
		</linearGradient>
	</defs>
	<path fill="url(#gradient)" d="M7 0v-48.8h9.9L34.6-31l17.8-17.8h9.9V0h-10v-35.1l-17.7 17L17-35V0H7zm63 0 22.8-48.8h10.5L127 0h-10.4l-4-8.2H84.2L80.3 0H70zm18-16.4h20.7L98.3-38.6 87.9-16.4zM134.5 0v-48.8h24.8q5.6 0 9.8 1.1 4 1.2 6.8 3.4 2.7 2.2 4 5.4 1.4 3.2 1.4 7.2 0 2.8-.7 5.2-.6 2.5-2 4.5t-3.4 3.7q-2 1.6-4.9 2.7L181.1 0h-12.2l-9.2-13.9h-15.2V0h-10zm9.9-22.5h15.2q2.8 0 4.9-.6 2-.7 3.5-1.9 1.4-1.2 2.1-2.9.7-1.7.7-3.8 0-4-2.8-6.3-2.8-2.2-8.4-2.2h-15.2v17.7zm45.6-2.2q0-5.2 2-9.8 2-4.5 5.7-7.8t9.1-5.2q5.4-2 12.2-2 6 0 11 1.3 5 1.2 9.2 3.6l-4.5 7.5q-1.3-.8-3-1.5-1.6-.6-3.5-1l-4-.8-4-.2q-4.7 0-8.4 1.2-3.7 1.1-6.3 3.2-2.5 2.1-3.8 5-1.4 3-1.4 6.5 0 3.6 1.4 6.6 1.4 3 4 5.3 2.6 2.2 6.4 3.4 3.7 1.2 8.5 1.2 2.1 0 4.3-.3l4-.8 4-1.3q1.8-.8 3.3-1.7l4.6 7.5q-4 2.6-9.2 4Q226.4.7 220.5.7q-7.5 0-13.2-2-5.7-2-9.5-5.4-3.8-3.4-5.8-8-1.9-4.7-1.9-10zM713 0Z"/>
	<path fill="none" stroke="url(#gradient)" d="M0 0Zm251.8 0v-48.8h9.9v12.7H292v-12.7h9.9V0h-10v-27.6h-30.3V0h-10ZM313-24.6q0-5.5 2-10 2-4.7 5.7-8t8.9-5q5-1.9 11.3-1.9 6.3 0 11.4 1.8 5.2 1.8 8.8 5.1 3.7 3.3 5.7 8 2 4.5 2 10 0 5.6-2 10.2-2 4.7-5.7 8-3.6 3.4-8.8 5.2Q347.2.7 341 .7q-6.2 0-11.3-1.9-5.2-1.8-8.9-5.2-3.6-3.3-5.7-8-2-4.6-2-10.2Zm10 0q0 3.8 1.3 6.9 1.3 3 3.8 5.1 2.4 2.2 5.7 3.3Q337-8 340.9-8q4 0 7.2-1.2 3.3-1.1 5.7-3.3 2.4-2.1 3.8-5.2 1.4-3 1.4-6.8 0-3.7-1.4-6.7t-3.8-5.1q-2.4-2.1-5.7-3.2-3.3-1-7.2-1-3.8 0-7.1 1-3.3 1.1-5.8 3.2-2.4 2-3.7 5-1.4 3-1.4 6.8ZM379.8 0v-48.8h41.6v8.6h-31.7v9.8h28v8.1h-28v13.6H422V0h-42ZM433 0v-48.8h10v25.2l25.7-25.2h12.7l-24 23.3 24 25.5h-13.2l-18-18.6-7.3 7V0H433Zm50.3-6.5 5.3-8q2.6 1.5 5.4 2.7 2.7 1.2 5.6 2 3 .8 6.2 1.3 3.2.4 6.9.4 4.4 0 7.5-.6 3-.6 5-1.6t2.9-2.4q.9-1.4.9-3 0-2.7-2.3-4.3-2.2-1.5-6.8-1.5-2 0-4.3.3l-4.5.5-4.6.6q-2.2.3-4.2.3-3.2 0-6.3-.9-3-.8-5.3-2.5t-3.7-4.2q-1.4-2.5-1.4-6 0-2 .6-3.9.5-2 1.7-3.8 1.2-1.7 3.1-3.3 2-1.5 4.6-2.7 2.7-1 6.3-1.7 3.5-.7 8-.7 3.3 0 6.7.4 3.3.4 6.4 1 3.1.7 6 1.6l5.5 2-4.4 8q-2-.9-4.4-1.6-2.4-.8-5-1.4l-5.3-.9q-2.8-.3-5.7-.3-4 0-6.7.6t-4.2 1.5q-1.6 1-2.2 2-.6 1.2-.6 2.4 0 2.1 2 3.5t6 1.4l3.7-.2 4.4-.5 4.8-.6 4.7-.2q4.3 0 7.6 1 3.4 1 5.6 2.8 2.3 1.8 3.4 4.3 1.2 2.5 1.2 5.7 0 4.2-2 7.5T532-3.9q-3.7 2.2-8.8 3.4-5 1.2-11.3 1.2-4.1 0-8-.5-4-.5-7.6-1.5-3.6-1-6.9-2.3-3.2-1.3-6-2.9ZM565 0v-40.2h-18v-8.6h46v8.6h-18V0h-10Zm38.5 0v-48.8h24.8q5.7 0 9.8 1.1 4.1 1.2 6.8 3.4 2.8 2.2 4 5.4 1.4 3.2 1.4 7.2 0 2.8-.6 5.2-.7 2.5-2 4.5-1.4 2-3.5 3.7-2 1.6-4.8 2.7L650 0h-12l-9.2-13.9h-15.3V0h-10Zm9.9-22.5h15.2q2.8 0 5-.6 2-.7 3.4-1.9 1.5-1.2 2.2-2.9.7-1.7.7-3.8 0-4-2.8-6.3-2.9-2.2-8.5-2.2h-15.2v17.7ZM655.8 0l23-48.8h10.5L712.9 0h-10.4l-4-8.2h-28.4L666.3 0h-10.5Zm18-16.4h20.9L684-38.6l-10.3 22.2Z"/>
</svg>